<svg xmlns="http://www.w3.org/2000/svg" viewBox="0 0 820 220" role="img" aria-label="Awesome Stream Deck">
  <defs>
    <linearGradient id="bg" x1="0" y1="0" x2="1" y2="1">
      <stop offset="0" stop-color="#1b1f2a"/>
      <stop offset="1" stop-color="#0d0f16"/>
    </linearGradient>
    <linearGradient id="k1" x1="0" y1="0" x2="1" y2="1"><stop offset="0" stop-color="#7c4dff"/><stop offset="1" stop-color="#4a23c9"/></linearGradient>
    <linearGradient id="k2" x1="0" y1="0" x2="1" y2="1"><stop offset="0" stop-color="#00d4ff"/><stop offset="1" stop-color="#0091c2"/></linearGradient>
    <linearGradient id="k3" x1="0" y1="0" x2="1" y2="1"><stop offset="0" stop-color="#ff6ec7"/><stop offset="1" stop-color="#c9357f"/></linearGradient>
    <linearGradient id="k4" x1="0" y1="0" x2="1" y2="1"><stop offset="0" stop-color="#3ddc84"/><stop offset="1" stop-color="#1f9e5a"/></linearGradient>
    <linearGradient id="k5" x1="0" y1="0" x2="1" y2="1"><stop offset="0" stop-color="#ffb347"/><stop offset="1" stop-color="#e0892b"/></linearGradient>
    <linearGradient id="k6" x1="0" y1="0" x2="1" y2="1"><stop offset="0" stop-color="#ff5e62"/><stop offset="1" stop-color="#c8302f"/></linearGradient>
  </defs>
  <rect x="0" y="0" width="820" height="220" rx="22" fill="url(#bg)"/>
  <g transform="translate(34,38)">
    <rect x="0"   y="0"  width="70" height="70" rx="13" fill="url(#k1)"/>
    <rect x="92"  y="0"  width="70" height="70" rx="13" fill="url(#k2)"/>
    <rect x="184" y="0"  width="70" height="70" rx="13" fill="url(#k3)"/>
    <rect x="0"   y="92" width="70" height="70" rx="13" fill="url(#k4)"/>
    <rect x="92"  y="92" width="70" height="70" rx="13" fill="url(#k5)"/>
    <rect x="184" y="92" width="70" height="70" rx="13" fill="url(#k6)"/>
  </g>
  <g fill="#ffffff" font-family="Segoe UI, Helvetica, Arial, sans-serif">
    <text x="320" y="92"  font-size="42" font-weight="700">Awesome</text>
    <text x="320" y="142" font-size="42" font-weight="700">Stream Deck</text>
    <text x="320" y="178" font-size="16" fill="#9aa3b2">Curated plugins, tools, icons &amp; resources</text>
  </g>
</svg>
